<?xml version="1.0" standalone="no"?>
<!DOCTYPE svg PUBLIC "-//W3C//DTD SVG 20010904//EN"
 "http://www.w3.org/TR/2001/REC-SVG-20010904/DTD/svg10.dtd">
<svg version="1.0" xmlns="http://www.w3.org/2000/svg"
 width="48.000000pt" height="48.000000pt" viewBox="0 0 48.000000 48.000000"
 preserveAspectRatio="xMidYMid meet">

<rect width="48" height="48" fill="#DC2626" rx="6"/>

<g transform="translate(0.000000,48.000000) scale(0.100000,-0.100000)"
fill="#FFFFFF" stroke="none">
<path d="M100 337 c0 -55 3 -67 25 -87 14 -13 25 -27 25 -32 0 -4 -11 -8 -25
-8 -24 0 -25 -2 -25 -65 l0 -65 121 0 c120 0 121 0 150 29 16 16 29 39 29 50
0 34 -19 71 -40 79 l-21 8 20 18 c32 29 29 89 -5 115 -23 18 -41 21 -140 21
l-114 0 0 -63z"/>
</g>
</svg>
